HIERARCHY
ROOT Hips
{
	OFFSET -10.795721 105.264893 -7.866684
	CHANNELS 6 Xposition Yposition Zposition Xrotation Yrotation Zrotation
	JOINT Chest
	{
		OFFSET -8.803780 10.395981 -0.755867
		CHANNELS 3 Xrotation Yrotation Zrotation
		JOINT Chest2
		{
			OFFSET -13.350775 16.688904 1.517943
			CHANNELS 3 Xrotation Yrotation Zrotation
			JOINT Chest3
			{
				OFFSET -5.886311 13.698364 0.725330
				CHANNELS 3 Xrotation Yrotation Zrotation
				JOINT Neck
				{
					OFFSET -7.956528 14.908005 3.614033
					CHANNELS 3 Xrotation Yrotation Zrotation
					JOINT Head
					{
						OFFSET -4.093830 8.759995 4.041129
						CHANNELS 3 Xrotation Yrotation Zrotation
						End Site
						{
							OFFSET -4.027111 8.781082 4.062328
						}
					}
				}
				JOINT LeftCollar
				{
					OFFSET -9.610012 8.909912 5.483195
					CHANNELS 3 Xrotation Yrotation Zrotation
					JOINT LeftUpArm
					{
						OFFSET 0.302601 -6.512787 16.309246
						CHANNELS 3 Xrotation Yrotation Zrotation
						JOINT LeftLowArm
						{
							OFFSET -22.329681 -24.016525 8.019971
							CHANNELS 3 Xrotation Yrotation Zrotation
							JOINT LeftHand
							{
								OFFSET -20.417427 -21.518562 4.585531
								CHANNELS 3 Xrotation Yrotation Zrotation
								End Site
								{
									OFFSET -4.462334 -4.703026 1.002195
								}
							}
						}
					}
				}
				JOINT RightCollar
				{
					OFFSET -7.512974 11.870392 -2.111353
					CHANNELS 3 Xrotation Yrotation Zrotation
					JOINT RightUpArm
					{
						OFFSET 8.101616 13.712479 -7.404608
						CHANNELS 3 Xrotation Yrotation Zrotation
						JOINT RightLowArm
						{
							OFFSET -12.258217 28.423080 -13.475838
							CHANNELS 3 Xrotation Yrotation Zrotation
							JOINT RightHand
							{
								OFFSET -7.005337 26.731232 11.718435
								CHANNELS 3 Xrotation Yrotation Zrotation
								End Site
								{
									OFFSET -1.531090 5.842377 2.561192
								}
							}
						}
					}
				}
			}
		}
	}
	JOINT LeftUpLeg
	{
		OFFSET 0.704563 1.316849 9.909020
		CHANNELS 3 Xrotation Yrotation Zrotation
		JOINT LeftLowLeg
		{
			OFFSET 40.810616 -16.944374 17.069595
			CHANNELS 3 Xrotation Yrotation Zrotation
			JOINT LeftFoot
			{
				OFFSET 42.169392 14.818993 -1.645628
				CHANNELS 3 Xrotation Yrotation Zrotation
				JOINT LeftToe
				{
					OFFSET 23.422287 -2.586708 2.065205
					CHANNELS 3 Xrotation Yrotation Zrotation
					End Site
					{
						OFFSET 16.013191 -14.577888 9.519547
					}
				}
			}
		}
	}
	JOINT RightUpLeg
	{
		OFFSET -0.704435 -1.316994 -9.909014
		CHANNELS 3 Xrotation Yrotation Zrotation
		JOINT RightLowLeg
		{
			OFFSET -15.495323 -44.756111 -0.893864
			CHANNELS 3 Xrotation Yrotation Zrotation
			JOINT RightFoot
			{
				OFFSET 14.344826 -42.357597 0.800457
				CHANNELS 3 Xrotation Yrotation Zrotation
				JOINT RightToe
				{
					OFFSET -17.880032 -15.470146 -0.732285
					CHANNELS 3 Xrotation Yrotation Zrotation
					End Site
					{
						OFFSET -23.204166 -0.920734 -4.502790
					}
				}
			}
		}
	}
}
MOTION
Frames: 15
Frame Time: 0.033333
-1.354632 105.734085 -1.111724 34.953415 78.677659 -67.364394 -7.009859 -7.747076 2.683771 -1.613656 -0.949049 3.406965 -25.002403 25.305904 15.996959 -8.557961 -15.518842 -1.136195 -0.000001 0.000001 0.000000 4.786663 13.115097 14.790349 9.520270 9.555814 46.058329 -7.719228 -26.424885 -6.414970 0.000005 0.000003 -0.000003 -55.487005 -12.235538 -20.062701 -76.330308 -23.893550 -32.638462 -31.839852 -42.941020 23.556716 -0.000002 0.000002 -0.000001 13.898396 1.627367 -26.607209 -11.298770 -14.635678 -35.727668 15.927837 -12.547159 -30.406131 -0.000001 -0.000002 -0.000003 -3.829617 -3.006627 56.468473 -0.668175 -11.218468 -25.332897 -1.100826 16.894406 9.811788 -0.000000 -0.000003 0.000001 
-1.351884 105.741089 -1.119611 34.336105 78.492206 -66.998992 -6.999844 -7.755023 2.728276 -1.326208 -0.788398 4.270930 -24.962057 25.462252 15.288602 -8.538962 -15.251295 -1.529836 0.000001 0.000001 -0.000002 4.824040 13.315374 14.948140 9.499511 9.318459 45.959475 -8.043808 -26.563241 -6.654798 0.000006 0.000004 -0.000002 -55.663631 -12.208644 -19.625437 -76.356263 -24.012766 -32.386360 -31.446184 -42.934549 23.580069 0.000001 -0.000001 0.000000 13.908716 1.590818 -26.721290 -11.167905 -14.652789 -35.284026 15.695066 -12.841403 -30.610599 -0.000007 -0.000002 -0.000003 -3.837717 -2.978870 56.341127 -0.609161 -11.138071 -25.036852 -1.068166 16.835865 9.575445 0.000003 -0.000000 0.000000 
-1.349054 105.750938 -1.129929 34.335491 78.535277 -67.096930 -6.992733 -7.708651 2.515714 -1.036939 -0.739950 5.523773 -24.663919 25.614429 14.306252 -8.573041 -15.042438 -1.874613 -0.000001 -0.000000 -0.000001 4.964091 13.363121 15.036202 9.483789 9.127876 45.797064 -8.244980 -26.656719 -6.984803 0.000001 0.000001 0.000003 -55.959890 -12.102957 -19.133363 -76.205554 -24.067018 -32.170649 -31.284531 -42.881526 23.628186 -0.000000 0.000003 -0.000000 13.882474 1.491346 -26.863329 -11.065650 -14.513981 -35.067906 15.604120 -12.778679 -30.458887 -0.000002 0.000000 -0.000001 -3.885924 -2.978007 55.982474 -0.383901 -11.063296 -24.475655 -1.096307 16.722538 9.662809 0.000001 0.000000 -0.000001 
-1.341804 105.754738 -1.142654 34.675552 78.535455 -67.201856 -6.935199 -7.726691 2.825234 -1.292085 -0.815835 4.618766 -24.839381 25.484240 15.102212 -8.693547 -15.088316 -2.014105 -0.000001 0.000000 -0.000002 5.191006 12.886950 15.091072 9.653874 8.836918 45.635926 -8.482646 -26.584498 -7.213978 0.000004 0.000003 0.000001 -56.160284 -12.147647 -19.454136 -75.961655 -24.298108 -31.879522 -31.120056 -42.865830 23.583322 -0.000002 0.000001 -0.000002 13.893340 1.334998 -27.210946 -11.023083 -14.500265 -34.633430 15.712147 -12.857613 -30.609370 -0.000005 -0.000001 -0.000004 -3.824328 -2.923124 56.009655 -0.521833 -11.114397 -24.745033 -1.167344 16.899922 9.688252 -0.000000 -0.000001 -0.000000 
-1.330996 105.756584 -1.154016 35.516202 78.687099 -67.820001 -7.079745 -7.792722 2.480118 -1.216570 -0.772196 4.789397 -24.771966 25.432674 15.073599 -8.772962 -15.231064 -2.090176 0.000001 -0.000000 -0.000001 5.251895 12.779424 15.036084 9.757875 8.838999 45.490235 -8.268973 -26.596693 -7.302747 0.000002 -0.000001 0.000001 -56.125451 -12.096815 -19.492673 -76.124985 -24.131816 -32.393617 -30.722652 -42.742070 24.363449 -0.000000 -0.000003 -0.000006 13.917976 1.278341 -27.347579 -10.997770 -14.528485 -34.395084 15.821189 -12.965033 -30.902272 -0.000002 -0.000005 -0.000010 -3.814702 -2.926187 55.845160 -0.667757 -11.115269 -24.974547 -1.132175 16.717230 10.003288 0.000001 0.000001 -0.000000 
-1.319290 105.765915 -1.165271 34.283643 78.373388 -66.638713 -7.041701 -7.739067 2.397986 -1.138482 -0.737504 5.079762 -25.061016 25.808338 15.035936 -8.814979 -15.239108 -2.103707 -0.000001 0.000001 -0.000002 5.331787 12.938663 15.062959 9.613049 8.831365 45.473835 -8.232097 -26.634510 -7.364225 0.000002 0.000001 -0.000001 -56.107484 -12.152734 -19.967233 -75.967427 -24.189344 -32.189111 -30.915362 -42.788861 24.240271 -0.000000 -0.000003 -0.000002 13.990235 1.259647 -27.454572 -11.008627 -14.535445 -34.640886 15.526929 -13.078643 -30.757424 -0.000005 -0.000001 -0.000003 -3.759671 -2.859620 55.855204 -0.629148 -11.050775 -24.895126 -1.318017 17.142585 9.667317 0.000001 -0.000001 -0.000001 
-1.311038 105.769669 -1.175164 36.046914 78.679661 -68.447409 -7.113251 -7.844210 2.497054 -1.143507 -0.870131 5.379961 -24.669375 25.744356 14.649709 -8.850406 -15.161937 -2.121845 -0.000001 0.000001 -0.000002 5.344212 12.789267 15.202172 9.734620 8.515596 45.411045 -8.604206 -26.600722 -7.450735 0.000003 -0.000000 0.000004 -56.263454 -12.225862 -19.860295 -75.971094 -24.403591 -31.916439 -30.358780 -42.795271 24.515796 -0.000002 -0.000005 -0.000001 13.846607 1.189653 -27.330999 -10.986652 -14.530025 -34.532361 15.694520 -12.914964 -30.706232 -0.000003 -0.000003 -0.000005 -3.916203 -2.965312 55.954112 -0.612207 -11.070148 -25.000301 -1.189164 16.808313 9.616891 -0.000000 -0.000000 -0.000000 
-1.298259 105.774788 -1.184531 34.439716 78.360199 -66.659791 -7.117012 -7.721493 1.759574 -1.023506 -0.804043 5.732109 -24.976817 25.909472 14.773957 -8.750472 -15.216558 -1.987039 -0.000001 -0.000001 0.000001 5.209453 13.127316 15.261030 9.664586 8.663131 45.478241 -8.605174 -26.603044 -7.501252 0.000003 0.000001 0.000003 -56.089742 -12.314934 -20.109469 -76.071000 -24.295693 -32.283644 -30.494551 -42.901088 24.730793 -0.000002 -0.000003 -0.000000 13.961441 1.451700 -27.027270 -11.091005 -14.602255 -35.165144 15.596510 -12.770177 -30.470768 -0.000005 -0.000002 -0.000003 -3.741146 -2.864703 56.103403 -0.675994 -11.164049 -25.327731 -1.375877 17.280602 10.054010 0.000003 -0.000000 0.000001 
-1.284608 105.774109 -1.195905 34.347123 78.273640 -66.370307 -7.041235 -7.690004 2.014825 -1.141462 -0.744069 5.066950 -25.035618 25.544518 15.182664 -8.617856 -14.926497 -2.223224 0.000000 -0.000000 0.000001 5.101229 13.261943 15.109382 9.748100 8.775136 45.363272 -8.236544 -26.658297 -7.383815 0.000004 0.000001 0.000003 -56.052507 -12.160354 -19.579813 -76.215404 -24.108450 -32.374424 -30.601819 -42.766079 24.622378 -0.000002 0.000001 0.000000 13.950788 1.459946 -27.056927 -11.233972 -14.550120 -35.273938 15.709958 -12.700548 -30.393041 -0.000006 -0.000001 -0.000003 -3.731796 -2.880525 55.881620 -0.599938 -11.242021 -25.043739 -1.448028 17.536927 10.035091 -0.000000 -0.000002 -0.000000 
-1.271402 105.775063 -1.211369 34.560156 78.425400 -66.806121 -6.979062 -7.691263 2.277140 -1.228726 -0.802587 4.866987 -25.115270 25.647859 15.359012 -8.640609 -15.059158 -2.100358 0.000003 -0.000000 0.000001 5.170921 12.959323 15.150039 9.925780 8.531922 45.279028 -8.445313 -26.716893 -7.488145 -0.000002 -0.000002 0.000006 -55.920097 -12.334280 -19.975148 -76.134739 -24.268999 -32.277664 -31.069766 -42.973020 23.905614 -0.000005 0.000001 0.000003 13.974471 1.612382 -26.791465 -11.251878 -14.622510 -35.353643 15.939486 -12.660146 -30.594296 -0.000003 -0.000004 -0.000007 -3.646589 -2.828766 56.269243 -0.688691 -11.243145 -25.148456 -1.368862 17.366010 10.052166 -0.000001 -0.000003 -0.000000 
-1.258919 105.777016 -1.223313 34.373709 78.406446 -66.264303 -7.008464 -7.635998 1.853883 -1.303474 -0.638822 4.214260 -25.335972 25.266516 15.966725 -8.647307 -15.118651 -1.991671 -0.000002 -0.000000 0.000001 5.161248 12.928939 15.128982 9.939973 8.597182 45.362418 -8.531920 -26.649656 -7.481179 -0.000000 -0.000000 0.000004 -55.887097 -12.255596 -19.454812 -76.334618 -24.203537 -32.532372 -30.357981 -42.883524 24.823387 -0.000002 0.000000 -0.000003 14.018776 1.427927 -27.245826 -11.293205 -14.566500 -35.356693 15.932921 -12.501394 -30.276306 -0.000005 -0.000004 -0.000010 -3.703408 -2.826920 55.691419 -0.507746 -11.294519 -24.719927 -1.388781 17.572062 9.770147 -0.000000 0.000001 -0.000000 
-1.247957 105.782944 -1.237249 35.045246 78.459435 -66.955989 -7.156784 -7.693408 1.522043 -1.195295 -0.707220 4.906114 -25.048826 25.379888 15.390247 -8.695822 -15.173586 -1.832414 -0.000000 0.000001 0.000000 5.122579 13.024058 15.118407 9.876724 8.687781 45.519277 -8.572160 -26.518618 -7.240587 0.000003 0.000001 -0.000001 -55.982392 -12.280466 -19.820651 -76.086648 -24.329267 -32.376989 -30.861073 -42.940737 24.291008 -0.000004 0.000002 0.000000 13.967151 1.287355 -27.365653 -11.242904 -14.577601 -35.221728 15.801597 -12.573802 -30.251478 -0.000005 -0.000001 -0.000003 -3.778657 -2.861668 55.847814 -0.699175 -11.284949 -25.214364 -1.355258 17.394702 9.833142 -0.000000 -0.000001 -0.000001 
-1.234288 105.783470 -1.247261 35.135217 78.489187 -67.215174 -7.064928 -7.711984 2.090457 -1.422768 -0.739269 3.977801 -25.146246 25.186860 16.015076 -8.814345 -15.295013 -1.892042 0.000000 0.000001 0.000000 5.148962 12.797283 15.045273 9.918741 8.833497 45.645372 -8.502046 -26.506935 -7.484967 0.000000 0.000000 -0.000000 -55.743745 -12.357275 -20.096790 -76.108190 -24.287232 -32.353756 -31.154081 -43.021043 24.207072 -0.000002 0.000001 0.000002 14.014733 1.514445 -26.910617 -11.349713 -14.743901 -35.662207 16.144730 -12.241074 -30.133736 -0.000005 0.000001 0.000001 -3.710636 -2.838110 56.292473 -0.769193 -11.222496 -25.416143 -1.382458 17.339866 9.984351 0.000001 0.000000 0.000001 
-1.220342 105.783997 -1.258428 34.929208 78.448404 -66.925704 -7.168486 -7.701110 1.521292 -1.125551 -0.731386 5.296792 -24.869564 25.494567 15.059230 -8.819000 -15.256761 -1.855143 0.000001 0.000000 -0.000000 5.104787 13.064858 15.092748 9.979269 8.522614 45.390582 -8.470700 -26.628572 -7.247492 0.000001 -0.000001 -0.000001 -55.845672 -12.295873 -19.784439 -76.251644 -24.300961 -32.357014 -30.668284 -42.871458 24.431716 -0.000000 -0.000002 -0.000003 13.993826 1.409588 -27.085009 -11.267785 -14.647877 -35.554311 15.898160 -12.325243 -30.069389 -0.000003 -0.000003 -0.000005 -3.726016 -2.823941 56.129719 -0.790216 -11.188730 -25.458010 -1.344897 17.148962 9.925153 -0.000000 -0.000000 0.000000 
-1.214785 105.790695 -1.265695 34.277625 78.309048 -66.791641 -7.079057 -7.706392 1.947254 -1.040099 -0.689040 5.561802 -24.945560 25.728020 14.850006 -8.795022 -15.448013 -1.687585 0.000000 -0.000001 -0.000003 5.193893 13.107785 15.225332 9.715019 8.506565 45.422059 -8.620392 -26.832046 -7.386636 0.000005 0.000000 -0.000003 -55.938553 -12.372644 -20.082225 -76.182960 -24.332812 -32.420558 -30.892375 -43.032261 24.022320 0.000003 0.000001 -0.000001 13.946947 1.555618 -26.702847 -11.210350 -14.578986 -35.460416 15.724185 -12.512217 -30.113464 -0.000007 -0.000003 -0.000005 -3.613453 -2.769405 56.612860 -0.842568 -11.195842 -25.354489 -1.324005 17.200472 9.936115 0.000001 -0.000001 -0.000001 
